<?xml version="1.0" encoding="utf-8"?>
<svg xmlns="http://www.w3.org/2000/svg" viewBox="0 0 128 128"><path d="M 8.85 95.94 L 8.85 32.07 L 38.31 49.05 L 38.31 78.82 L 8.85 95.94 Z" style="fill: rgb(222, 101, 71);"/><path d="M 64.15 128.02 L 64.15 94.49 L 38.16 78.82 L 8.85 95.94 L 64.15 128.02 Z" style="fill: rgb(253, 188, 77);"/><path d="M 119.15 95.94 L 119.15 32.07 L 89.69 49.05 L 89.69 78.82 L 119.15 95.94 Z" style="fill: rgb(105, 179, 86);"/><path d="M 64.15 128.02 L 64.15 94.49 L 89.83 78.82 L 119.15 95.94 L 64.15 128.02 Z" style="fill: rgb(209, 233, 147);"/><path d="M 64.15 0 L 64.15 33.53 L 38.31 49.2 L 8.85 32.07 L 64.15 0 Z" style="fill: rgb(128, 183, 250);"/><path d="M 64.15 0 L 64.15 33.53 L 89.69 49.2 L 119.15 32.07 L 64.15 0 Z" style="fill: rgb(69, 129, 225);"/><path d="M 91.87 76.06 C 93.61 77.8 95.2 81.29 95.2 84.04 C 95.2 86.66 93.61 90.13 91.87 91.87 C 90.12 93.62 86.64 95.21 84.03 95.21 C 81.27 95.21 77.78 93.62 76.04 91.87 C 75.75 91.59 75.32 91.15 75.02 90.57 C 75.17 91.15 75.17 91.73 75.17 92.31 C 75.17 94.92 73.72 98.41 71.84 100.15 C 70.09 101.89 66.76 103.49 64 103.49 C 61.24 103.49 57.9 101.89 56.16 100.15 C 54.28 98.41 52.82 94.92 52.82 92.31 C 52.82 91.73 52.82 91.15 52.96 90.72 C 52.53 91.15 52.24 91.59 51.96 91.87 C 50.21 93.62 46.73 95.21 43.97 95.21 C 41.21 95.21 37.87 93.62 36.13 91.87 C 34.38 90.13 32.79 86.66 32.79 84.04 C 32.79 81.29 34.38 77.8 36.13 76.06 C 36.42 75.77 36.85 75.33 37.43 75.04 C 36.85 75.18 36.28 75.18 35.69 75.18 C 33.08 75.18 29.59 73.74 27.85 71.84 C 26.12 70.1 24.51 66.76 24.51 64 C 24.51 61.26 26.12 57.91 27.85 56.18 C 29.59 54.28 33.08 52.83 35.69 52.83 C 36.28 52.83 36.85 52.83 37.29 52.98 C 36.85 52.54 36.42 52.25 36.13 51.96 C 34.38 50.22 32.79 46.73 32.79 43.97 C 32.79 41.36 34.38 37.88 36.13 36.15 C 37.87 34.4 41.36 32.8 43.97 32.8 C 46.73 32.8 50.21 34.4 51.96 36.15 C 52.24 36.43 52.67 36.86 52.96 37.45 C 52.82 36.86 52.82 36.28 52.82 35.71 C 52.82 33.09 54.28 29.61 56.16 27.87 C 57.9 26.12 61.24 24.53 64 24.53 C 66.76 24.53 70.09 26.12 71.84 27.87 C 73.72 29.61 75.17 33.09 75.17 35.71 C 75.17 36.28 75.17 36.86 75.02 37.3 C 75.46 36.86 75.75 36.43 76.04 36.15 C 77.78 34.4 81.27 32.8 84.03 32.8 C 86.64 32.8 90.12 34.4 91.87 36.15 C 93.61 37.88 95.2 41.36 95.2 43.97 C 95.2 46.73 93.61 50.22 91.87 51.96 C 91.58 52.25 91.14 52.69 90.56 52.98 C 91.14 52.83 91.72 52.83 92.31 52.83 C 94.91 52.83 98.4 54.28 100.13 56.18 C 101.88 57.91 103.48 61.26 103.48 64 C 103.48 66.76 101.88 70.1 100.13 71.84 C 98.4 73.74 94.91 75.18 92.31 75.18 C 91.72 75.18 91.14 75.18 90.7 75.04 C 91.14 75.48 91.58 75.77 91.87 76.06 Z" style="fill: rgb(47, 47, 47);"/><path d="M 74.6 68.37 L 87.65 68.37 C 88.82 69.67 90.41 70.4 92.31 70.4 C 95.78 70.4 98.54 67.49 98.54 64 C 98.54 60.53 95.78 57.62 92.31 57.62 C 90.41 57.62 88.82 58.5 87.65 59.65 L 74.6 59.65 L 83.88 50.37 C 83.88 50.37 83.88 50.37 84.03 50.37 C 87.51 50.37 90.27 47.46 90.27 43.97 C 90.27 40.5 87.51 37.74 84.03 37.74 C 80.54 37.74 77.64 40.5 77.64 43.97 C 77.64 44.12 77.64 44.12 77.64 44.12 L 68.35 53.42 L 68.35 40.35 C 69.65 39.19 70.38 37.59 70.38 35.71 C 70.38 32.22 67.48 29.46 64 29.46 C 60.51 29.46 57.61 32.22 57.61 35.71 C 57.61 37.59 58.48 39.19 59.64 40.35 L 59.64 53.42 L 50.35 44.12 C 50.35 44.12 50.35 44.12 50.35 43.97 C 50.35 40.5 47.59 37.74 43.97 37.74 C 40.48 37.74 37.72 40.5 37.72 43.97 C 37.72 47.46 40.48 50.37 43.97 50.37 C 44.12 50.37 44.12 50.37 44.12 50.37 L 53.4 59.65 L 40.34 59.65 C 39.18 58.5 37.58 57.62 35.69 57.62 C 32.21 57.62 29.45 60.53 29.45 64 C 29.45 67.49 32.21 70.4 35.69 70.4 C 37.58 70.4 39.18 69.67 40.34 68.37 L 53.4 68.37 L 44.12 77.65 C 44.12 77.65 44.12 77.65 43.97 77.65 C 40.48 77.65 37.72 80.41 37.72 84.04 C 37.72 87.52 40.48 90.28 43.97 90.28 C 47.45 90.28 50.35 87.52 50.35 84.04 C 50.35 83.9 50.35 83.9 50.35 83.9 L 59.64 74.6 L 59.64 87.67 C 58.34 88.83 57.61 90.43 57.61 92.31 C 57.61 95.8 60.51 98.56 64 98.56 C 67.48 98.56 70.38 95.8 70.38 92.31 C 70.38 90.43 69.52 88.83 68.35 87.67 L 68.35 74.6 L 77.64 83.9 C 77.64 83.9 77.64 83.9 77.64 84.04 C 77.64 87.52 80.4 90.28 84.03 90.28 C 87.51 90.28 90.27 87.52 90.27 84.04 C 90.27 80.41 87.51 77.65 84.03 77.65 C 83.88 77.65 83.88 77.65 83.88 77.65 L 74.6 68.37 Z" style="fill: rgb(255, 255, 255);"/></svg>