<?xml version="1.0" encoding="utf-8"?>
<svg xmlns="http://www.w3.org/2000/svg" viewBox="0 0 128 128"><filter id="drop-shadow-filter-0" x="-500%" y="-500%" width="1000%" height="1000%" xmlns:bx="https://boxy-svg.com" bx:preset="drop-shadow 1 1 1 1.7 0.5 rgba(0,0,0,0.3)">
        <feGaussianBlur in="SourceAlpha" stdDeviation="1.7"/>
        <feOffset dx="1" dy="1"/>
        <feComponentTransfer result="offsetblur">
          <feFuncA id="spread-ctrl" type="linear" slope="1"/>
        </feComponentTransfer>
        <feFlood flood-color="rgba(0,0,0,0.3)"/>
        <feComposite in2="offsetblur" operator="in"/>
        <feMerge>
          <feMergeNode/>
          <feMergeNode in="SourceGraphic"/>
        </feMerge>
      </filter><filter id="inner-shadow-filter-1" x="-500%" y="-500%" width="1000%" height="1000%" xmlns:bx="https://boxy-svg.com" bx:preset="inner-shadow 1 0 0 5 0.64 rgba(0,0,0,0.32)">
        <feOffset dx="0" dy="0"/>
        <feGaussianBlur stdDeviation="5"/>
        <feComposite operator="out" in="SourceGraphic"/>
        <feComponentTransfer result="choke">
          <feFuncA type="linear" slope="1.28"/>
        </feComponentTransfer>
        <feFlood flood-color="rgba(0,0,0,0.32)" result="color"/>
        <feComposite operator="in" in="color" in2="choke" result="shadow"/>
        <feComposite operator="over" in="shadow" in2="SourceGraphic"/>
      </filter><path d="M 46.65 73.97 L 46.59 74.1 L 64.13 84.66 L 81.42 74.11 L 81.35 74.07 L 81.35 53.93 L 64.13 43.34 L 46.65 53.93 L 46.65 73.97 Z M 11.83 94.2 L 11.83 33.8 L 64.13 3.46 L 116.17 33.84 L 116.17 94.16 L 64.13 124.54 L 11.83 94.2 Z" style="fill: rgb(255, 255, 255); fill-opacity: 0.8; filter: url(#drop-shadow-filter-0);"/><g style="filter: url(#inner-shadow-filter-1);" transform="matrix(1.29796, 0, 0, 1.29796, -0.89428, -0.89258)">
        <path d="M 11.77 72.13 L 11.77 27.87 L 32.19 39.64 L 32.19 60.26 L 11.77 72.13 Z" style="fill: rgb(215, 78, 79); filter: none;"/>
        <path d="M 50.1 94.36 L 50.1 71.13 L 32.09 60.26 L 11.77 72.13 L 50.1 94.36 Z" style="fill: rgb(246, 206, 104); filter: none;"/>
        <path d="M 88.23 72.13 L 88.23 27.87 L 67.81 39.64 L 67.81 60.26 L 88.23 72.13 Z" style="fill: rgb(73, 167, 52); filter: none;"/>
        <path d="M 50.1 94.36 L 50.1 71.13 L 67.91 60.26 L 88.23 72.13 L 50.1 94.36 Z" style="fill: rgb(176, 207, 119); filter: none;"/>
        <path d="M 50.1 5.64 L 50.1 28.87 L 32.19 39.74 L 11.77 27.87 L 50.1 5.64 Z" style="fill: rgb(171, 188, 208); filter: none;"/>
        <path d="M 50.1 5.64 L 50.1 28.87 L 67.81 39.74 L 88.23 27.87 L 50.1 5.64 Z" style="fill: rgb(60, 132, 227); filter: none;"/>
      </g><path d="M 89.95 75.21 C 91.57 76.84 93.06 80.08 93.06 82.65 C 93.06 85.08 91.57 88.32 89.95 89.95 C 88.32 91.57 85.08 93.06 82.65 93.06 C 80.08 93.06 76.84 91.57 75.21 89.95 C 74.94 89.67 74.54 89.27 74.27 88.73 C 74.41 89.27 74.41 89.82 74.41 90.35 C 74.41 92.79 73.06 96.03 71.29 97.66 C 69.67 99.28 66.57 100.76 64 100.76 C 61.43 100.76 58.33 99.28 56.71 97.66 C 54.94 96.03 53.59 92.79 53.59 90.35 C 53.59 89.82 53.59 89.27 53.73 88.87 C 53.32 89.27 53.06 89.67 52.79 89.95 C 51.16 91.57 47.92 93.06 45.35 93.06 C 42.78 93.06 39.68 91.57 38.05 89.95 C 36.43 88.32 34.94 85.08 34.94 82.65 C 34.94 80.08 36.43 76.84 38.05 75.21 C 38.33 74.94 38.73 74.54 39.27 74.27 C 38.73 74.41 38.18 74.41 37.65 74.41 C 35.21 74.41 31.97 73.06 30.34 71.29 C 28.72 69.67 27.24 66.57 27.24 64 C 27.24 61.43 28.72 58.33 30.34 56.71 C 31.97 54.94 35.21 53.59 37.65 53.59 C 38.18 53.59 38.73 53.59 39.13 53.73 C 38.73 53.32 38.33 53.06 38.05 52.79 C 36.43 51.16 34.94 47.92 34.94 45.35 C 34.94 42.92 36.43 39.68 38.05 38.05 C 39.68 36.43 42.92 34.94 45.35 34.94 C 47.92 34.94 51.16 36.43 52.79 38.05 C 53.06 38.33 53.46 38.73 53.73 39.27 C 53.59 38.73 53.59 38.18 53.59 37.65 C 53.59 35.21 54.94 31.97 56.71 30.34 C 58.33 28.72 61.43 27.24 64 27.24 C 66.57 27.24 69.67 28.72 71.29 30.34 C 73.06 31.97 74.41 35.21 74.41 37.65 C 74.41 38.18 74.41 38.73 74.27 39.13 C 74.68 38.73 74.94 38.33 75.21 38.05 C 76.84 36.43 80.08 34.94 82.65 34.94 C 85.08 34.94 88.32 36.43 89.95 38.05 C 91.57 39.68 93.06 42.92 93.06 45.35 C 93.06 47.92 91.57 51.16 89.95 52.79 C 89.67 53.06 89.27 53.46 88.73 53.73 C 89.27 53.59 89.82 53.59 90.35 53.59 C 92.79 53.59 96.03 54.94 97.66 56.71 C 99.28 58.33 100.76 61.43 100.76 64 C 100.76 66.57 99.28 69.67 97.66 71.29 C 96.03 73.06 92.79 74.41 90.35 74.41 C 89.82 74.41 89.27 74.41 88.87 74.27 C 89.27 74.68 89.67 74.94 89.95 75.21 Z" style="filter: none;"/><path d="M 73.6 67.95 L 85.44 67.95 C 86.49 69.13 87.93 69.79 89.65 69.79 C 92.8 69.79 95.29 67.15 95.29 64 C 95.29 60.85 92.8 58.21 89.65 58.21 C 87.93 58.21 86.49 59 85.44 60.05 L 73.6 60.05 L 82.02 51.63 C 82.02 51.63 82.02 51.63 82.15 51.63 C 85.3 51.63 87.8 49.01 87.8 45.85 C 87.8 42.7 85.3 40.2 82.15 40.2 C 78.99 40.2 76.37 42.7 76.37 45.85 C 76.37 45.98 76.37 45.98 76.37 45.98 L 67.95 54.4 L 67.95 42.56 C 69.13 41.51 69.79 40.07 69.79 38.35 C 69.79 35.2 67.15 32.71 64 32.71 C 60.85 32.71 58.21 35.2 58.21 38.35 C 58.21 40.07 59 41.51 60.05 42.56 L 60.05 54.4 L 51.63 45.98 C 51.63 45.98 51.63 45.98 51.63 45.85 C 51.63 42.7 49.14 40.2 45.85 40.2 C 42.7 40.2 40.2 42.7 40.2 45.85 C 40.2 49.01 42.7 51.63 45.85 51.63 C 45.98 51.63 45.98 51.63 45.98 51.63 L 54.4 60.05 L 42.56 60.05 C 41.51 59 40.07 58.21 38.35 58.21 C 35.2 58.21 32.71 60.85 32.71 64 C 32.71 67.15 35.2 69.79 38.35 69.79 C 40.07 69.79 41.51 69.13 42.56 67.95 L 54.4 67.95 L 45.98 76.37 C 45.98 76.37 45.98 76.37 45.85 76.37 C 42.7 76.37 40.2 78.86 40.2 82.15 C 40.2 85.3 42.7 87.8 45.85 87.8 C 49.01 87.8 51.63 85.3 51.63 82.15 C 51.63 82.02 51.63 82.02 51.63 82.02 L 60.05 73.6 L 60.05 85.44 C 58.87 86.49 58.21 87.93 58.21 89.65 C 58.21 92.8 60.85 95.29 64 95.29 C 67.15 95.29 69.79 92.8 69.79 89.65 C 69.79 87.93 69 86.49 67.95 85.44 L 67.95 73.6 L 76.37 82.02 C 76.37 82.02 76.37 82.02 76.37 82.15 C 76.37 85.3 78.86 87.8 82.15 87.8 C 85.3 87.8 87.8 85.3 87.8 82.15 C 87.8 78.86 85.3 76.37 82.15 76.37 C 82.02 76.37 82.02 76.37 82.02 76.37 L 73.6 67.95 Z" style="filter: none; fill: rgb(255, 255, 255);"/></svg>